#tb 0: 1/1000
#media_type 0: audio
#codec_id 0: pcm_s16le
#sample_rate 0: 1000
#channel_layout_name 0: mono
0,          0,          0,      132,      264, 0xc2981f45
0,        132,        132,       68,      136, 0xe78e468d
0,        200,        200,      100,      200, 0xd55c67d0
0,        300,        300,      100,      200, 0xd55c67d0
0,        400,        400,      100,      200, 0xd55c67d0
0,        500,        500,       93,      186, 0x85ca5db4
0,        593,        593,      110,      220, 0xa2655d0b
0,        703,        703,      108,      216, 0x95cb6f01
0,        811,        811,      108,      216, 0xf35668b8
0,        919,        919,      149,      298, 0xc273245f
0,       1068,       1068,      136,      272, 0xedeb6e0a
0,       1204,       1204,       98,      196, 0xea18668e
0,       1302,       1302,       98,      196, 0x412861e7
0,       1400,       1400,       98,      196, 0x7ec361b2
0,       1498,       1498,      110,      220, 0xf3ae6a6a
0,       1608,       1608,      108,      216, 0xab2f6c93
0,       1716,       1716,      107,      214, 0x50de6eb9
0,       1823,       1823,      106,      212, 0x67b8656d
0,       1929,       1929,       18,       36, 0x2b7911c6
